<?xml version="1.0" standalone="no"?>
<svg xmlns:xlink="http://www.w3.org/1999/xlink" id="wave" style="transform:rotate(0deg); transition: 0.3s" viewBox="0 0 1440 490" version="1.1" xmlns="http://www.w3.org/2000/svg"><defs><linearGradient id="sw-gradient-0" x1="0" x2="0" y1="1" y2="0"><stop stop-color="#ebf6ff" offset="0%"/>
<stop stop-color="#b1deff" offset="100%"/></linearGradient></defs><path style="transform:translate(0, 0px); opacity:1" fill="url(#sw-gradient-0)" d="M0,294L120,310.3C240,327,480,359,720,351.2C960,343,1200,294,1440,285.8C1680,278,1920,310,2160,334.8C2400,359,2640,376,2880,334.8C3120,294,3360,196,3600,130.7C3840,65,4080,33,4320,49C4560,65,4800,131,5040,204.2C5280,278,5520,359,5760,367.5C6000,376,6240,310,6480,236.8C6720,163,6960,82,7200,40.8C7440,0,7680,0,7920,73.5C8160,147,8400,294,8640,326.7C8880,359,9120,278,9360,236.8C9600,196,9840,196,10080,171.5C10320,147,10560,98,10800,73.5C11040,49,11280,49,11520,89.8C11760,131,12000,212,12240,253.2C12480,294,12720,294,12960,294C13200,294,13440,294,13680,253.2C13920,212,14160,131,14400,114.3C14640,98,14880,147,15120,204.2C15360,261,15600,327,15840,359.3C16080,392,16320,392,16560,367.5C16800,343,17040,294,17160,269.5L17280,245L17280,490L17160,490C17040,490,16800,490,16560,490C16320,490,16080,490,15840,490C15600,490,15360,490,15120,490C14880,490,14640,490,14400,490C14160,490,13920,490,13680,490C13440,490,13200,490,12960,490C12720,490,12480,490,12240,490C12000,490,11760,490,11520,490C11280,490,11040,490,10800,490C10560,490,10320,490,10080,490C9840,490,9600,490,9360,490C9120,490,8880,490,8640,490C8400,490,8160,490,7920,490C7680,490,7440,490,7200,490C6960,490,6720,490,6480,490C6240,490,6000,490,5760,490C5520,490,5280,490,5040,490C4800,490,4560,490,4320,490C4080,490,3840,490,3600,490C3360,490,3120,490,2880,490C2640,490,2400,490,2160,490C1920,490,1680,490,1440,490C1200,490,960,490,720,490C480,490,240,490,120,490L0,490Z"/></svg>